{"title":"The Boxtrolls 2014 720p HDRIP Studio Audio X264 AC3 TiTAN","uid":11543622,"size":3102544312,"categoryP":"video","categoryS":"hd___movies","magnet":"?xt=urn:btih:00e95e1396e2d237dc3a880ff5e732a6fa10fe37&amp;dn=The+Boxtrolls+2014+720p+HDRIP+Studio+Audio+X264+AC3+TiTAN&amp;tr=udp%3A%2F%2Ftracker.openbittorrent.com%3A80&amp;tr=udp%3A%2F%2Fopen.demonii.com%3A1337&amp;tr=udp%3A%2F%2Ftracker.coppersurfer.tk%3A6969&amp;tr=udp%3A%2F%2Fexodus.desync.com%3A6969","seeders":1,"leechers":0,"uploader":"TvTeam","files":3,"time":1416697717,"description":" &lt;a href=&quot;http://www.torrenting.com&quot; rel=&quot;nofollow&quot; target=&quot;_NEW&quot;&gt;http://www.torrenting.com&lt;/a&gt;\n\nSign up is OPEN - for time being. Come and have fun.\n\n------------------------------------------------------------------[IMG]http://i.imgur.com/J6xKJ58.jpg[/IMG]\n &lt;a href=&quot;\nhttp://www.imdb.com/title/tt0787474/&quot; rel=&quot;nofollow&quot; target=&quot;_NEW&quot;&gt;\nhttp://www.imdb.com/title/tt0787474/&lt;/a&gt;\n\nSource: RUS Itunes/CHN Webrip\n\nGeneral\n\nFormat                                   : Matroska\nFormat version                           : Version 2\nFile size                                : 2.89 GiB\nDuration                                 : 1h 36mn\nOverall bit rate                         : 4 301 Kbps\nEncoded date                             : UTC 2014-11-22 09:45:54\n\nVideo\nID                                       : 1\nFormat                                   : AVC\nFormat/Info                              : Advanced Video Codec\nFormat profile                           : &lt;a class=&quot;__cf_email__&quot; href=&quot;/cdn-cgi/l/email-protection&quot; data-cfemail=&quot;3870515f5078740b1609&quot;&gt;[email&amp;#160;protected]&lt;/a&gt;&lt;script cf-hash='f9e31' type=&quot;text/javascript&quot;&gt;\n/* &lt;![CDATA[ */!function(){try{var t=&quot;currentScript&quot;in document?document.currentScript:function(){for(var t=document.getElementsByTagName(&quot;script&quot;),e=t.length;e--;)if(t[e].getAttribute(&quot;cf-hash&quot;))return t[e]}();if(t&amp;&amp;t.previousSibling){var e,r,n,i,c=t.previousSibling,a=c.getAttribute(&quot;data-cfemail&quot;);if(a){for(e=&quot;&quot;,r=parseInt(a.substr(0,2),16),n=2;a.length-n;n+=2)i=parseInt(a.substr(n,2),16)^r,e+=String.fromCharCode(i);e=document.createTextNode(e),c.parentNode.replaceChild(e,c)}}}catch(u){}}();/* ]]&gt; */&lt;/script&gt;\nFormat settings, CABAC                   : No\nFormat settings, ReFrames                : 2 frames\nCodec ID                                 : V_MPEG4/ISO/AVC\nDuration                                 : 1h 36mn\nBit rate                                 : 3 960 Kbps\nWidth                                    : 1 280 pixels\nHeight                                   : 718 pixels\nDisplay aspect ratio                     : 16:9\nFrame rate mode                          : Constant\nFrame rate                               : 23.976 fps\nColor space                              : YUV\nChroma subsampling                       : 4:2:0\nBit depth                                : 8 bits\nScan type                                : Progressive\nBits/(Pixel*Frame)                       : 0.180\nStream size                              : 2.66 GiB (92%)\nLanguage                                 : English\nDefault                                  : Yes\nForced                                   : No\nColor primaries                          : BT.709\nTransfer characteristics                 : BT.709\nMatrix coefficients                      : BT.709\n\nAudio\nID                                       : 2\nFormat                                   : AC-3\nFormat/Info                              : Audio Coding 3\nMode extension                           : CM (complete main)\nFormat settings, Endianness              : Big\nCodec ID                                 : A_AC3\nDuration                                 : 1h 36mn\nBit rate mode                            : Constant\nBit rate                                 : 256 Kbps\nChannel(s)                               : 2 channels\nChannel positions                        : Front: L R\nSampling rate                            : 48.0 KHz\nBit depth                                : 16 bits\nCompression mode                         : Lossy\nDelay relative to video                  : 3s 25ms\nStream size                              : 176 MiB (6%)\nDefault                                  : Yes\nForced                                   : No\n\n\n[IMG]http://i.imgur.com/oK5qMIJ.jpg[/IMG]\n[IMG]http://i.imgur.com/NWPfPN5.jpg[/IMG]\n[IMG]http://i.imgur.com/bw8I9PD.jpg[/IMG]\n[IMG]http://i.imgur.com/bw8I9PD.jpg[/IMG]\n[IMG]http://i.imgur.com/w7qw4ne.jpg[/IMG]","torrent":{"xt":"urn:btih:00e95e1396e2d237dc3a880ff5e732a6fa10fe37","amp;dn":"The+Boxtrolls+2014+720p+HDRIP+Studio+Audio+X264+AC3+TiTAN","amp;tr":["udp%3A%2F%2Ftracker.openbittorrent.com%3A80","udp%3A%2F%2Fopen.demonii.com%3A1337","udp%3A%2F%2Ftracker.coppersurfer.tk%3A6969","udp%3A%2F%2Fexodus.desync.com%3A6969"],"infoHash":"00e95e1396e2d237dc3a880ff5e732a6fa10fe37","infoHashBuffer":{"type":"Buffer","data":[0,233,94,19,150,226,210,55,220,58,136,15,245,231,50,166,250,16,254,55]},"announce":[],"urlList":[]}}